<svg class="w-6 fill-white aspect-square" viewBox='0 0 24 24' xmlns='http://www.w3.org/2000/svg' xmlns:xlink='http://www.w3.org/1999/xlink'>
  <g transform="matrix(1.43 0 0 1.43 12 12)" >
  <path style="stroke: none; stroke-width: 1; stroke-dasharray: none; stroke-linecap: butt; stroke-dashoffset: 0; stroke-linejoin: miter; stroke-miterlimit: 4; fill: rgb(0,0,0); fill-rule: nonzero; opacity: 1;" transform=" translate(-8, -7.5)" d="M 2.5 1 C 1.675781 1 1 1.675781 1 2.5 L 1 10.5 C 1 11.324219 1.675781 12 2.5 12 L 4 12 L 4 12.5 C 4 13.324219 4.675781 14 5.5 14 L 13.5 14 C 14.324219 14 15 13.324219 15 12.5 L 15 4.5 C 15 3.675781 14.324219 3 13.5 3 L 12 3 L 12 2.5 C 12 1.675781 11.324219 1 10.5 1 Z M 2.5 2 L 10.5 2 C 10.78125 2 11 2.21875 11 2.5 L 11 10.5 C 11 10.78125 10.78125 11 10.5 11 L 2.5 11 C 2.21875 11 2 10.78125 2 10.5 L 2 2.5 C 2 2.21875 2.21875 2 2.5 2 Z M 12 4 L 13.5 4 C 13.78125 4 14 4.21875 14 4.5 L 14 12.5 C 14 12.78125 13.78125 13 13.5 13 L 5.5 13 C 5.21875 13 5 12.78125 5 12.5 L 5 12 L 10.5 12 C 11.324219 12 12 11.324219 12 10.5 Z" stroke-linecap="round" />
  </g>
</svg>